<mxfile host="Electron" agent="Mozilla/5.0 (Macintosh; Intel Mac OS X 10_15_7) AppleWebKit/537.36 (KHTML, like Gecko) draw.io/28.1.2 Chrome/138.0.7204.243 Electron/37.4.0 Safari/537.36" version="28.1.2">
  <diagram name="Page-1" id="S9RewXNavOU9jK7Pj6GI">
    <mxGraphModel dx="576" dy="916" grid="1" gridSize="10" guides="1" tooltips="1" connect="1" arrows="1" fold="1" page="1" pageScale="1" pageWidth="827" pageHeight="1169" math="0" shadow="0">
      <root>
        <mxCell id="0" />
        <mxCell id="1" parent="0" />
        <mxCell id="3z0bAlvzIezeUpDmCF2o-1" value="Traveler&lt;div&gt;&lt;br&gt;&lt;/div&gt;" style="shape=umlActor;verticalLabelPosition=bottom;verticalAlign=top;html=1;outlineConnect=0;" vertex="1" parent="1">
          <mxGeometry x="40" y="210" width="30" height="60" as="geometry" />
        </mxCell>
        <mxCell id="3z0bAlvzIezeUpDmCF2o-9" value="&lt;div&gt;&lt;br&gt;&lt;/div&gt;" style="whiteSpace=wrap;html=1;aspect=fixed;" vertex="1" parent="1">
          <mxGeometry x="110" y="90" width="330" height="330" as="geometry" />
        </mxCell>
        <mxCell id="3z0bAlvzIezeUpDmCF2o-18" value="BuyOneWayTicket" style="ellipse;whiteSpace=wrap;html=1;" vertex="1" parent="1">
          <mxGeometry x="217.5" y="100" width="115" height="65" as="geometry" />
        </mxCell>
        <mxCell id="3z0bAlvzIezeUpDmCF2o-20" value="BuyWeeklyCard" style="ellipse;whiteSpace=wrap;html=1;" vertex="1" parent="1">
          <mxGeometry x="217.5" y="180" width="115" height="65" as="geometry" />
        </mxCell>
        <mxCell id="3z0bAlvzIezeUpDmCF2o-22" value="UpdateTariff" style="ellipse;whiteSpace=wrap;html=1;" vertex="1" parent="1">
          <mxGeometry x="217.5" y="340" width="115" height="65" as="geometry" />
        </mxCell>
        <mxCell id="3z0bAlvzIezeUpDmCF2o-25" value="" style="endArrow=none;html=1;rounded=0;" edge="1" parent="1" target="3z0bAlvzIezeUpDmCF2o-21">
          <mxGeometry width="50" height="50" relative="1" as="geometry">
            <mxPoint x="260" y="280" as="sourcePoint" />
            <mxPoint x="310" y="230" as="targetPoint" />
          </mxGeometry>
        </mxCell>
        <mxCell id="3z0bAlvzIezeUpDmCF2o-21" value="BuyMonthlyCard" style="ellipse;whiteSpace=wrap;html=1;" vertex="1" parent="1">
          <mxGeometry x="217.5" y="260" width="115" height="65" as="geometry" />
        </mxCell>
        <mxCell id="3z0bAlvzIezeUpDmCF2o-26" value="" style="endArrow=none;html=1;rounded=0;entryX=0.009;entryY=0.646;entryDx=0;entryDy=0;entryPerimeter=0;exitX=1;exitY=0.3333333333333333;exitDx=0;exitDy=0;exitPerimeter=0;" edge="1" parent="1" source="3z0bAlvzIezeUpDmCF2o-1" target="3z0bAlvzIezeUpDmCF2o-18">
          <mxGeometry width="50" height="50" relative="1" as="geometry">
            <mxPoint x="260" y="280" as="sourcePoint" />
            <mxPoint x="310" y="230" as="targetPoint" />
          </mxGeometry>
        </mxCell>
        <mxCell id="3z0bAlvzIezeUpDmCF2o-28" value="" style="endArrow=none;html=1;rounded=0;entryX=0.009;entryY=0.646;entryDx=0;entryDy=0;entryPerimeter=0;" edge="1" parent="1" source="3z0bAlvzIezeUpDmCF2o-1">
          <mxGeometry width="50" height="50" relative="1" as="geometry">
            <mxPoint x="76.5" y="298" as="sourcePoint" />
            <mxPoint x="217.5" y="212" as="targetPoint" />
          </mxGeometry>
        </mxCell>
        <mxCell id="3z0bAlvzIezeUpDmCF2o-30" value="" style="endArrow=none;html=1;rounded=0;" edge="1" parent="1" source="3z0bAlvzIezeUpDmCF2o-1">
          <mxGeometry width="50" height="50" relative="1" as="geometry">
            <mxPoint x="160" y="340" as="sourcePoint" />
            <mxPoint x="210" y="290" as="targetPoint" />
          </mxGeometry>
        </mxCell>
        <mxCell id="3z0bAlvzIezeUpDmCF2o-31" value="Central Computer System&lt;div&gt;&lt;br&gt;&lt;/div&gt;" style="shape=umlActor;verticalLabelPosition=bottom;verticalAlign=top;html=1;outlineConnect=0;" vertex="1" parent="1">
          <mxGeometry x="490" y="200" width="30" height="60" as="geometry" />
        </mxCell>
        <mxCell id="3z0bAlvzIezeUpDmCF2o-33" value="" style="endArrow=none;html=1;rounded=0;entryX=0;entryY=0.3333333333333333;entryDx=0;entryDy=0;entryPerimeter=0;" edge="1" parent="1" target="3z0bAlvzIezeUpDmCF2o-31">
          <mxGeometry width="50" height="50" relative="1" as="geometry">
            <mxPoint x="332.5" y="360" as="sourcePoint" />
            <mxPoint x="382.5" y="310" as="targetPoint" />
          </mxGeometry>
        </mxCell>
      </root>
    </mxGraphModel>
  </diagram>
</mxfile>
